<mxfile host="app.diagrams.net" modified="2022-01-03T16:17:15.437Z" agent="5.0 (Macintosh; Intel Mac OS X 10_15_7) AppleWebKit/605.1.15 (KHTML, like Gecko) Version/15.1 Safari/605.1.15" etag="UVsxZQgJX-U5sTZ4fenM" version="16.1.4" type="github">
  <diagram id="C5RBs43oDa-KdzZeNtuy" name="Page-1">
    <mxGraphModel dx="899" dy="791" grid="0" gridSize="10" guides="1" tooltips="1" connect="1" arrows="1" fold="1" page="0" pageScale="1" pageWidth="827" pageHeight="1169" math="0" shadow="0">
      <root>
        <mxCell id="WIyWlLk6GJQsqaUBKTNV-0" />
        <mxCell id="WIyWlLk6GJQsqaUBKTNV-1" parent="WIyWlLk6GJQsqaUBKTNV-0" />
        <mxCell id="y2oYbmCpB1avPkG6bHLA-13" value="" style="rounded=0;whiteSpace=wrap;html=1;fontSize=9;glass=0;strokeWidth=1;shadow=1;comic=1;fillColor=#ffe6cc;strokeColor=#d79b00;" vertex="1" parent="WIyWlLk6GJQsqaUBKTNV-1">
          <mxGeometry x="123.5" y="-24" width="193" height="98" as="geometry" />
        </mxCell>
        <mxCell id="y2oYbmCpB1avPkG6bHLA-4" value="UIKit" style="rounded=0;whiteSpace=wrap;html=1;fontSize=9;glass=0;strokeWidth=1;shadow=1;comic=1;" vertex="1" parent="WIyWlLk6GJQsqaUBKTNV-1">
          <mxGeometry x="160" y="252" width="120" height="36" as="geometry" />
        </mxCell>
        <mxCell id="y2oYbmCpB1avPkG6bHLA-8" value="SignUpViewPresenter" style="rounded=0;whiteSpace=wrap;html=1;fontSize=9;glass=0;strokeWidth=1;shadow=1;comic=1;" vertex="1" parent="WIyWlLk6GJQsqaUBKTNV-1">
          <mxGeometry x="160" y="7" width="120" height="36" as="geometry" />
        </mxCell>
        <mxCell id="y2oYbmCpB1avPkG6bHLA-16" value="" style="group" vertex="1" connectable="0" parent="WIyWlLk6GJQsqaUBKTNV-1">
          <mxGeometry x="349" y="-41" width="193" height="115" as="geometry" />
        </mxCell>
        <mxCell id="y2oYbmCpB1avPkG6bHLA-11" value="" style="rounded=0;whiteSpace=wrap;html=1;fontSize=9;glass=0;strokeWidth=1;shadow=1;comic=1;fillColor=#f8cecc;strokeColor=#b85450;" vertex="1" parent="y2oYbmCpB1avPkG6bHLA-16">
          <mxGeometry y="17" width="193" height="98" as="geometry" />
        </mxCell>
        <mxCell id="y2oYbmCpB1avPkG6bHLA-12" value="Domain" style="text;html=1;align=center;verticalAlign=middle;resizable=0;points=[];autosize=1;strokeColor=none;fillColor=none;fontSize=9;" vertex="1" parent="y2oYbmCpB1avPkG6bHLA-16">
          <mxGeometry x="152" width="41" height="15" as="geometry" />
        </mxCell>
        <mxCell id="y2oYbmCpB1avPkG6bHLA-9" value="AddAccount" style="rounded=1;whiteSpace=wrap;html=1;fontSize=9;glass=0;strokeWidth=1;shadow=1;dashed=1;comic=1;strokeColor=#9C4744;" vertex="1" parent="y2oYbmCpB1avPkG6bHLA-16">
          <mxGeometry x="36.5" y="48" width="120" height="36" as="geometry" />
        </mxCell>
        <mxCell id="y2oYbmCpB1avPkG6bHLA-20" style="edgeStyle=orthogonalEdgeStyle;rounded=0;comic=0;orthogonalLoop=1;jettySize=auto;html=1;entryX=0;entryY=0.5;entryDx=0;entryDy=0;fontSize=6;endArrow=classic;endFill=1;" edge="1" parent="WIyWlLk6GJQsqaUBKTNV-1" source="y2oYbmCpB1avPkG6bHLA-8" target="y2oYbmCpB1avPkG6bHLA-9">
          <mxGeometry relative="1" as="geometry" />
        </mxCell>
        <mxCell id="y2oYbmCpB1avPkG6bHLA-21" value="" style="group" vertex="1" connectable="0" parent="WIyWlLk6GJQsqaUBKTNV-1">
          <mxGeometry x="123.5" y="74" width="193" height="115" as="geometry" />
        </mxCell>
        <mxCell id="y2oYbmCpB1avPkG6bHLA-22" value="" style="rounded=0;whiteSpace=wrap;html=1;fontSize=9;glass=0;strokeWidth=1;shadow=1;comic=1;fillColor=#fff2cc;strokeColor=#d6b656;" vertex="1" parent="y2oYbmCpB1avPkG6bHLA-21">
          <mxGeometry y="36" width="193" height="98" as="geometry" />
        </mxCell>
        <mxCell id="y2oYbmCpB1avPkG6bHLA-23" value="UI" style="text;html=1;align=center;verticalAlign=middle;resizable=0;points=[];autosize=1;strokeColor=none;fillColor=none;fontSize=9;" vertex="1" parent="y2oYbmCpB1avPkG6bHLA-21">
          <mxGeometry x="163" y="21" width="19" height="15" as="geometry" />
        </mxCell>
        <mxCell id="y2oYbmCpB1avPkG6bHLA-5" value="SignUpViewController" style="rounded=0;whiteSpace=wrap;html=1;fontSize=9;glass=0;strokeWidth=1;shadow=1;comic=1;" vertex="1" parent="y2oYbmCpB1avPkG6bHLA-21">
          <mxGeometry x="36.5" y="67" width="120" height="36" as="geometry" />
        </mxCell>
        <mxCell id="y2oYbmCpB1avPkG6bHLA-15" value="Presenter" style="text;html=1;align=center;verticalAlign=middle;resizable=0;points=[];autosize=1;strokeColor=none;fillColor=none;fontSize=9;" vertex="1" parent="WIyWlLk6GJQsqaUBKTNV-1">
          <mxGeometry x="271.5" y="-41" width="49" height="15" as="geometry" />
        </mxCell>
        <mxCell id="y2oYbmCpB1avPkG6bHLA-7" style="edgeStyle=orthogonalEdgeStyle;rounded=0;orthogonalLoop=1;jettySize=auto;html=1;entryX=0.5;entryY=0;entryDx=0;entryDy=0;fontSize=9;endArrow=classic;endFill=1;comic=0;" edge="1" parent="WIyWlLk6GJQsqaUBKTNV-1" source="y2oYbmCpB1avPkG6bHLA-5" target="y2oYbmCpB1avPkG6bHLA-4">
          <mxGeometry relative="1" as="geometry" />
        </mxCell>
        <mxCell id="y2oYbmCpB1avPkG6bHLA-25" value="" style="group" vertex="1" connectable="0" parent="WIyWlLk6GJQsqaUBKTNV-1">
          <mxGeometry x="349" y="-207" width="194" height="115" as="geometry" />
        </mxCell>
        <mxCell id="y2oYbmCpB1avPkG6bHLA-26" value="" style="rounded=0;whiteSpace=wrap;html=1;fontSize=9;glass=0;strokeWidth=1;shadow=1;comic=1;fillColor=#d5e8d4;strokeColor=#82b366;" vertex="1" parent="y2oYbmCpB1avPkG6bHLA-25">
          <mxGeometry x="-173" y="17" width="366" height="98" as="geometry" />
        </mxCell>
        <mxCell id="y2oYbmCpB1avPkG6bHLA-27" value="Data" style="text;html=1;align=center;verticalAlign=middle;resizable=0;points=[];autosize=1;strokeColor=none;fillColor=none;fontSize=9;" vertex="1" parent="y2oYbmCpB1avPkG6bHLA-25">
          <mxGeometry x="159" width="29" height="15" as="geometry" />
        </mxCell>
        <mxCell id="y2oYbmCpB1avPkG6bHLA-32" style="edgeStyle=orthogonalEdgeStyle;rounded=0;comic=0;orthogonalLoop=1;jettySize=auto;html=1;entryX=1;entryY=0.5;entryDx=0;entryDy=0;fontSize=6;endArrow=classic;endFill=1;" edge="1" parent="y2oYbmCpB1avPkG6bHLA-25" source="y2oYbmCpB1avPkG6bHLA-29" target="y2oYbmCpB1avPkG6bHLA-31">
          <mxGeometry relative="1" as="geometry" />
        </mxCell>
        <mxCell id="y2oYbmCpB1avPkG6bHLA-29" value="RemoteAddAccount" style="rounded=0;whiteSpace=wrap;html=1;fontSize=9;glass=0;strokeWidth=1;shadow=1;comic=1;" vertex="1" parent="y2oYbmCpB1avPkG6bHLA-25">
          <mxGeometry x="36.5" y="48" width="120" height="36" as="geometry" />
        </mxCell>
        <mxCell id="y2oYbmCpB1avPkG6bHLA-31" value="HttpClient" style="rounded=1;whiteSpace=wrap;html=1;fontSize=9;glass=0;strokeWidth=1;shadow=1;dashed=1;comic=1;strokeColor=#336600;" vertex="1" parent="y2oYbmCpB1avPkG6bHLA-25">
          <mxGeometry x="-120" y="48" width="120" height="36" as="geometry" />
        </mxCell>
        <mxCell id="y2oYbmCpB1avPkG6bHLA-30" style="edgeStyle=orthogonalEdgeStyle;rounded=0;comic=0;orthogonalLoop=1;jettySize=auto;html=1;entryX=0.5;entryY=0;entryDx=0;entryDy=0;fontSize=6;endArrow=classic;endFill=1;" edge="1" parent="WIyWlLk6GJQsqaUBKTNV-1" source="y2oYbmCpB1avPkG6bHLA-29" target="y2oYbmCpB1avPkG6bHLA-9">
          <mxGeometry relative="1" as="geometry" />
        </mxCell>
        <mxCell id="y2oYbmCpB1avPkG6bHLA-33" value="" style="group" vertex="1" connectable="0" parent="WIyWlLk6GJQsqaUBKTNV-1">
          <mxGeometry x="-54" y="-207" width="193" height="115" as="geometry" />
        </mxCell>
        <mxCell id="y2oYbmCpB1avPkG6bHLA-34" value="" style="rounded=0;whiteSpace=wrap;html=1;fontSize=9;glass=0;strokeWidth=1;shadow=1;comic=1;fillColor=#f8cecc;strokeColor=#b85450;" vertex="1" parent="y2oYbmCpB1avPkG6bHLA-33">
          <mxGeometry y="17" width="193" height="98" as="geometry" />
        </mxCell>
        <mxCell id="y2oYbmCpB1avPkG6bHLA-35" value="Infra" style="text;html=1;align=center;verticalAlign=middle;resizable=0;points=[];autosize=1;strokeColor=none;fillColor=none;fontSize=9;" vertex="1" parent="y2oYbmCpB1avPkG6bHLA-33">
          <mxGeometry x="159" width="28" height="15" as="geometry" />
        </mxCell>
        <mxCell id="y2oYbmCpB1avPkG6bHLA-36" value="AddAccount" style="rounded=1;whiteSpace=wrap;html=1;fontSize=9;glass=0;strokeWidth=1;shadow=1;dashed=1;comic=1;strokeColor=#9C4744;" vertex="1" parent="y2oYbmCpB1avPkG6bHLA-33">
          <mxGeometry x="36.5" y="48" width="120" height="36" as="geometry" />
        </mxCell>
      </root>
    </mxGraphModel>
  </diagram>
</mxfile>
